/* XPM */
static char *_b30b18b505045e689bdb01dbc95679dPBmoEt8TIk4OkXso[] = {
/* columns rows colors chars-per-pixel */
"30 30 2 1 ",
"  c black",
". c #0296B6",
/* pixels */
"                              ",
"            .......           ",
"          ...........         ",
"        ...............       ",
"       .................      ",
"      ...................     ",
"     .....................    ",
"    .......................   ",
"    .......................   ",
"   .........................  ",
"   .........................  ",
"  ........................... ",
"  ........................... ",
"  ........................... ",
"  ........................... ",
"  ........................... ",
"  ........................... ",
"  ........................... ",
"   .........................  ",
"   .........................  ",
"    .......................   ",
"    .......................   ",
"     .....................    ",
"      ...................     ",
"       .................      ",
"        ...............       ",
"          ...........         ",
"            .......           ",
"                              ",
"                              "
};
